PathFileType        4      (X/Y/Z)      C:\Users\pc\Desktop\IMUTRC\Sujet_04\Sujet_04_velo_60.trc         
DataRate	CameraRate	NumFrames	NumMarkers	Units	OrigDataRate	OrigDataStartFrame	OrigNumFrames
60.0	60.0	4	64	mm	60.0	786	1257
Frame#	Time	pHipOrigin			pRightASI			pLeftASI			pRightCSI			pLeftCSI			pRightIschialTub			pLeftIschialTub			pSacrum			pL5SpinalProcess			pL3SpinalProcess			pT12SpinalProcess			pIJ			pT4SpinalProcess			pT8SpinalProcess			pPX			pC7SpinalProcess			pTopOfHead			pRightAuricularis			pLeftAuricularis			pBackOfHead			pRightAcromion			pLeftAcromion			pRightArmLatEpicondyle			pRightArmMedEpicondyle			pLeftArmLatEpicondyle			pLeftArmMedEpicondyle			pRightUlnarStyloid			pRightRadialStyloid			pRightOlecranon			pLeftUlnarStyloid			pLeftRadialStyloid			pLeftOlecranon			pRightTopOfHand			pRightPinky			pRightBallHand			pLeftTopOfHand			pLeftPinky			pLeftBallHand			pRightGreaterTrochanter			pRightKneeLatEpicondyle			pRightKneeMedEpicondyle			pRightPatella			pLeftGreaterTrochanter			pLeftKneeLatEpicondyle			pLeftKneeMedEpicondyle			pLeftPatella			pRightTibialTub			pRightLatMalleolus			pRightMedMalleolus			pLeftTibialTub			pLeftLatMalleolus			pLeftMedMalleolus			pRightHeelFoot			pRightFirstMetatarsal			pRightFifthMetatarsal			pRightPivotFoot			pRightHeelCenter			pRightToe			pLeftHeelFoot			pLeftFirstMetatarsal			pLeftFifthMetatarsal			pLeftPivotFoot			pLeftHeelCenter			pLeftToe			
		X1	Y1	Z1	X2	Y2	Z2	X3	Y3	Z3	X4	Y4	Z4	X5	Y5	Z5	X6	Y6	Z6	X7	Y7	Z7	X8	Y8	Z8	X9	Y9	Z9	X10	Y10	Z10	X11	Y11	Z11	X12	Y12	Z12	X13	Y13	Z13	X14	Y14	Z14	X15	Y15	Z15	X16	Y16	Z16	X17	Y17	Z17	X18	Y18	Z18	X19	Y19	Z19	X20	Y20	Z20	X21	Y21	Z21	X22	Y22	Z22	X23	Y23	Z23	X24	Y24	Z24	X25	Y25	Z25	X26	Y26	Z26	X27	Y27	Z27	X28	Y28	Z28	X29	Y29	Z29	X30	Y30	Z30	X31	Y31	Z31	X32	Y32	Z32	X33	Y33	Z33	X34	Y34	Z34	X35	Y35	Z35	X36	Y36	Z36	X37	Y37	Z37	X38	Y38	Z38	X39	Y39	Z39	X40	Y40	Z40	X41	Y41	Z41	X42	Y42	Z42	X43	Y43	Z43	X44	Y44	Z44	X45	Y45	Z45	X46	Y46	Z46	X47	Y47	Z47	X48	Y48	Z48	X49	Y49	Z49	X50	Y50	Z50	X51	Y51	Z51	X52	Y52	Z52	X53	Y53	Z53	X54	Y54	Z54	X55	Y55	Z55	X56	Y56	Z56	X57	Y57	Z57	X58	Y58	Z58	X59	Y59	Z59	X60	Y60	Z60	X61	Y61	Z61	X62	Y62	Z62	X63	Y63	Z63	X64	Y64	Z64	
786	13.083	4.919999564491574E-14	1250.01928	5.863427156544783E-14	68.27093314203007	1335.98556	161.94324126870185	98.8344520365248	1358.29002	-129.54798128314764	31.7190831526206	1415.33466	137.28528064336416	56.765051372038094	1433.58895	-101.32187810036868	-72.68368976781096	1192.06192	48.62742043709815	-60.21922489503674	1201.18907	-70.70152242345968	-68.73831260730353	1281.45088	-4.7991005982588675	-13.775686846013606	1384.47351	8.431574535338417	51.85509527247612	1486.41229	25.14651392980017	116.98809835302477	1576.20056	41.534469943206446	380.9434621922918	1591.65965	82.76742045611925	271.2072917701652	1703.86647	75.43423062794892	194.26496838943086	1653.55309	59.3492919784361	278.76104513124426	1518.47138	60.830092228902984	320.94556879757596	1733.81491	85.89986597278836	569.1722545120847	1779.33653	128.26716244062303	472.5389492917142	1736.78123	178.96980982302713	492.8093136374532	1751.32761	44.00602283395412	462.0484102417302	1793.82587	113.75271709623073	290.4727449202393	1673.11941	268.51944487205645	344.8533855290545	1713.33588	-104.98730732785992	308.18516155978784	1352.87077	285.9009534334656	273.29250845309843	1344.14294	229.31949095662407	389.86004117502773	1393.42952	-100.60433787027961	350.22150062554806	1386.81234	-46.9398369388654	405.74281207608266	1124.12175	201.95530307383473	451.7034887169484	1142.66126	222.7395103942566	268.94893636414594	1340.60618	249.34680720226396	438.51049393895926	1156.52311	11.15492430663781	488.6259614757231	1174.26399	18.69773525660605	346.2465145401209	1382.47695	-79.72067416205361	596.005545144129	1020.12937	306.58749944147235	507.5970081956078	1026.6895	249.8589659349294	461.01078667867273	1089.15339	212.62129091093433	651.1486725756876	1045.00083	24.332597634437377	546.643494259575	1056.23863	30.33311602598667	490.3143295292152	1121.61179	34.110454506357144	5.532727815727611	1241.12032	179.7365314102247	378.1792522850747	1028.28675	251.8173379147839	393.9050064775996	1014.9383	170.18716552775058	407.4270201699158	1063.36921	205.38240437158868	26.102496023471218	1229.14094	-174.78230176912092	239.6835964140776	850.82086	-150.63013256811317	242.2843892678684	850.19337	-66.50579336418915	280.4272688865626	876.43391	-106.77724326996237	405.90157326858355	966.45036	205.69434236625406	92.53968930982646	698.85393	131.22850144059905	109.26067749237174	705.29998	67.37983774386548	293.1652877404181	809.86281	-108.90206867119443	163.79359921424728	415.45614	-164.39601807975194	164.28106199847733	411.57711	-98.23200446750053	20.21704891452404	646.71513	81.77845556617065	176.90334185305937	561.03407	59.24752036568473	163.17722835241378	554.70212	142.55080160553683	190.79513471518177	545.80315	102.24933046664191	57.78229700879126	627.14882	86.5226502442328	268.2547307286825	499.42586	111.49610654448463	108.08611041468403	331.31529	-130.23672901739826	275.74384910554375	309.23901	-68.51833483526238	284.8594560303008	301.9373	-152.34645964294145	303.75708468147116	302.16548	-106.3962686758838	150.25333165171187	327.37921	-125.33284558390937	392.77688632147374	288.41772	-95.53074440530298	
787	13.1	4.919999564491574E-14	1250.01928	5.863427156544783E-14	68.40203398802547	1336.15669	161.83323459718008	99.05295089303564	1357.8907	-129.73132359305853	32.02498001964686	1415.50579	137.02860269506414	57.07797880884335	1433.30372	-101.65891582896074	-72.8147829533619	1192.2901	48.7374206807438	-60.26292007007225	1201.18907	-70.66485781820316	-68.65091459678808	1281.56497	-4.8724362366480065	-13.550157419723792	1384.47351	8.1678724451355	52.11728930402245	1486.41229	24.92650701463276	117.32362802296024	1576.14351	41.40186103855449	381.2001337127158	1591.54557	83.07330966270109	271.4272922574566	1703.75238	75.69641699905083	194.5427328517601	1653.439	59.41408775582133	279.0825124290534	1518.41433	60.85821697315559	321.195216176097	1733.70082	86.28612262010662	569.2852861939323	1779.27949	129.2893154533362	472.5123338386865	1736.72418	179.73679937397307	493.1041719101108	1751.27057	44.80114478959703	462.1458638323506	1793.76883	114.49007384426741	290.56868279175865	1673.00532	268.811271706512	345.58521976596876	1713.50701	-104.55886479673106	308.3037016644374	1352.75669	286.39720909186127	273.3236646355531	1343.97181	229.88908348597712	390.23222778977527	1393.48656	-100.69324517201997	350.52035160190644	1386.86938	-47.116142251121204	405.71317161272896	1124.06471	201.83124045806275	451.7175510890747	1142.54717	222.57877674535197	268.9800925466006	1340.43504	249.91639973161705	438.58232151869174	1156.35198	10.796785975696025	488.7414906583673	1174.09286	18.302939980852187	346.6187088153129	1382.53399	-79.80958789167005	596.0477246000635	1019.84414	306.1053049226346	507.5884683346038	1026.51837	249.4938034620846	460.99521624788986	1089.0393	212.33648821838167	651.1908596920665	1044.77265	23.850396687723617	546.7223459812105	1056.01045	29.894610254308418	490.42985871185937	1121.38361	33.71565923060322	5.649758629152274	1242.66052	179.78726481548364	384.26198771199216	1041.34997	253.5642379107261	400.2951480627683	1027.48813	172.1229098285294	412.41275245919826	1076.66061	206.70939403696147	25.181796965523674	1228.68459	-174.9033470350114	229.84775166217005	845.40162	-152.05753129477378	232.77001824164608	844.54595	-67.90505968615268	271.37247605772717	869.93082	-108.33876019249985	413.4168427356399	979.68471	207.72852969979317	106.03222826170547	704.50135	136.21507000438385	122.15399111198849	711.06149	72.27349344645692	283.06574732618367	803.5879	-110.55498916370038	148.71836800251478	410.94961	-166.5652370837732	149.32989983039292	406.89945	-100.430856274431	34.87993430287166	650.19485	87.27232604316424	193.8461170406598	568.62101	65.06233186352635	180.44147083782337	562.51723	148.39373784763103	208.22011084949597	554.07463	108.10632908086247	73.00774312414465	631.65534	92.06573840738432	286.9218667908773	509.92207	117.5022675084038	91.12579110732871	328.17784	-132.61135219917895	258.33648539807456	301.76617	-71.33698629984372	267.093960419766	294.57854	-155.23693102681088	286.07898708145177	294.17923	-109.36007569814238	133.18301333327923	323.15791	-127.83857603956154	374.7984155981189	278.26377	-98.76378368933132	
788	13.117	4.919999564491574E-14	1250.01928	5.863427156544783E-14	68.65719621722448	1336.15669	161.69360155062526	99.19107464836557	1357.54844	-129.92168361699623	32.447900039653334	1415.56284	136.82266457989914	57.420532620681705	1433.07554	-101.87189217434916	-72.90218096387736	1192.46124	48.81075631913294	-60.3940132556232	1201.24611	-70.5548575745575	-68.61424356365546	1281.67906	-4.828733401168066	-13.302025760303767	1384.53055	8.10859917887267	52.52614695190263	1486.2982	24.88130254837234	117.76212613419406	1575.97238	41.480719188066026	381.6245694518233	1591.26034	83.31290146111724	271.8813684599177	1703.46716	76.0600714132389	194.97420039321491	1653.21083	59.57330568562489	279.52804234263454	1518.18615	60.856701254054585	321.6492847181137	1733.41559	86.6497834621708	569.6097772694991	1779.05131	130.20850645262715	472.7408870427339	1736.43896	180.3641635388085	493.6908505893478	1750.98534	45.50032121327612	462.5351442574265	1793.4836	115.1314927207847	291.1171888070826	1672.606	269.02121661369836	346.39742787149555	1713.50701	-104.12339046325485	308.78741066980774	1352.41442	286.88493254969734	273.63257119201637	1343.51545	230.52347056014716	390.7651557138719	1393.37247	-100.76809652951007	350.972919745711	1386.69825	-47.19802417839037	405.99796787740553	1123.77949	201.81566236683545	452.0093855839747	1142.2049	222.48283244595657	269.41306814671196	1340.09277	250.52115400287784	438.9319059003091	1156.1238	10.503449850015556	489.08404447020564	1173.80764	18.089963635463732	347.07126929867303	1382.4199	-79.89146339106311	596.4043407840281	1019.38779	305.73159492834156	507.89435754118574	1026.1761	249.23713194166066	461.2503784770888	1088.75407	212.19685517182685	651.5404517341283	1044.48743	23.55705413416706	547.0352734180157	1055.78227	29.557572525716353	490.7357479184412	1121.09839	33.458987710179315	5.817524080404169	1243.91551	179.72095331899737	389.429554252529	1052.70186	254.66419009115248	405.69677623015434	1038.55479	173.3243288194736	416.6370177086573	1088.35476	207.4838721275573	24.26109790757613	1228.39936	-175.0243923009018	221.83070279302734	841.29441	-153.4472683135935	225.08146204478376	840.32465	-69.34705348977678	263.9757531231965	865.02498	-109.87668420719889	420.23542685193746	991.43591	208.93243976365773	119.83217856714347	707.58176	141.39050462177033	135.28136635845453	714.31303	77.26861595956618	274.50722424406445	798.45388	-112.23504495831908	133.31313605984533	408.38261	-169.1277356444473	134.00503532845994	404.10426	-102.9863306932022	50.23798932287703	650.7653	93.15094387625119	211.58552990300416	574.0973	71.02781500229148	198.73640619695007	568.33579	154.48880488072223	226.63911525227073	560.40658	114.17176331104446	88.97205404619127	633.53782	97.95690932137265	306.6704355599242	518.87808	123.64353611033974	73.87916104876416	326.86581	-135.415941291634	240.46099720433853	296.34693	-74.35855729714022	248.97736470851285	289.21634	-158.27959619858103	268.00609420567855	288.24659	-112.43941190304514	115.81934480084561	320.87612	-130.6938921093994	356.2870233785435	270.16343	-101.92196395542507	
789	13.133	4.919999564491574E-14	1250.01928	5.863427156544783E-14	69.10975027270848	1335.98556	161.6117183907878	99.24180162574838	1357.32026	-130.0387220908653	33.01749899688253	1415.50579	136.7915160578889	57.66866428010174	1432.96145	-101.93116544061198	-72.95291436913628	1192.63237	48.92778713255759	-60.605473881910605	1201.3602	-70.45188147281473	-68.54090792526634	1281.85019	-4.7413353906526226	-13.017237156071653	1384.53055	8.093027515521444	52.92798169044825	1486.18411	24.916451434527836	118.28099168616433	1575.7442	41.566601479480454	382.1871301788291	1590.86103	83.36211914727514	272.5032024531863	1703.12489	76.35742075881687	195.60306618883084	1652.9256	59.790281162590276	280.0539384643838	1517.84389	60.862223765176964	322.2274235363468	1733.01628	86.98379741300529	570.1160885079996	1778.70904	130.9006587344034	473.1808944451926	1736.03965	180.8885439414567	494.3719578488793	1750.58603	46.045802218274105	463.0625560982768	1793.02725	115.5825451454883	291.9504898545147	1672.14965	269.2155975179779	347.21666654680143	1713.39292	-103.7682759100707	309.46852558978367	1351.95806	287.43040712681926	274.18258526599686	1343.0591	231.17895180879074	391.3714257042336	1393.20134	-100.75554221604037	351.50584643723926	1386.47007	-47.27286144755996	406.4801688241193	1123.38017	201.8578494832144	452.53528170572395	1141.74855	222.48835495707894	270.0067850561724	1339.63642	251.13996421838885	439.4789026244081	1155.83857	10.267872504065252	489.6310347664285	1173.52241	17.854378629069032	347.68457109138217	1382.24877	-79.95928294620595	596.9513375081272	1018.81734	305.49601758239135	508.3539498268932	1025.6627	249.07488257365517	461.7833064011854	1088.29772	212.12200381433664	652.0507774250947	1044.14516	23.27777395273688	547.5385608787587	1055.44	29.358658552454187	491.28273821466405	1120.81316	33.223402703784615	6.058623937476881	1244.82822	179.74205392134712	393.87933483995727	1062.51354	255.17496485897703	410.3072904664872	1048.19533	173.84916595942448	420.22386321317595	1098.45166	207.6762110357747	23.42077271824111	1228.22823	-175.13840576444494	215.59578000608525	838.38513	-154.84306054837288	219.21169407024192	837.30128	-70.751379157684	258.28078883013	861.48821	-111.42768757976043	426.4236371139625	1001.81804	209.47383800909975	134.23839243506714	708.55152	146.57848589218207	148.73021013529805	715.33983	82.29184912860754	267.5263907597613	794.5178	-113.8985473078911	117.73160003748845	407.81216	-171.98909926980036	118.4671944811385	403.24859	-105.88435892381179	66.26158117163092	648.88282	99.29024002178349	230.15823615233614	577.63406	77.18768547321233	217.8209538563495	572.38596	160.81492508379398	245.81105449430947	564.97015	120.42454021528266	105.56524485217437	633.02441	104.0650569448947	327.3326728171397	526.40797	129.98620975845813	56.45623333838824	327.55035	-138.51938778832354	222.2343948215636	292.8672	-77.53232331490571	230.59003510470944	285.79367	-161.4674169280284	249.5750617663952	284.19642	-115.59056159935989	98.19198060608517	320.53385	-133.77472994508264	337.4174928280264	264.05966	-105.15197180125136	
